<svg width="633" height="497" xmlns="http://www.w3.org/2000/svg" xmlns:xlink="http://www.w3.org/1999/xlink" overflow="hidden"><defs><clipPath id="clip0"><rect x="0" y="0" width="633" height="497"/></clipPath><clipPath id="clip1"><rect x="96" y="53" width="335" height="150"/></clipPath><clipPath id="clip2"><rect x="96" y="122" width="335" height="151"/></clipPath><clipPath id="clip3"><rect x="96" y="145" width="335" height="151"/></clipPath><clipPath id="clip4"><rect x="96" y="247" width="335" height="169"/></clipPath><clipPath id="clip5"><rect x="96" y="281" width="335" height="150"/></clipPath><clipPath id="clip6"><rect x="96" y="304" width="494" height="151"/></clipPath><clipPath id="clip7"><rect x="96" y="327" width="335" height="151"/></clipPath></defs><g clip-path="url(#clip0)"><rect x="0" y="0" width="633" height="496.594" fill="#FFFFFF"/><path d="M67 1.0012 628.981 1.0012" stroke="#000000" stroke-width="1.68636" stroke-linejoin="round" stroke-miterlimit="10" fill="none" fill-rule="evenodd"/><path d="M67.5 36.5438 629.481 36.5438" stroke="#000000" stroke-width="0.842076" stroke-linejoin="round" stroke-miterlimit="10" fill="none" fill-rule="evenodd"/><path d="M67.5 310.872 629.481 310.872" stroke="#000000" stroke-width="0.842076" stroke-linejoin="round" stroke-miterlimit="10" fill="none" fill-rule="evenodd"/><text font-family="Times New Roman,Times New Roman_MSFontService,sans-serif" font-weight="400" font-size="21" transform="matrix(1 0 0 1.0012 90.3378 386)">H<tspan font-size="21" x="116.035" y="-358.57">Method</tspan><tspan font-size="21" x="391.04" y="-358.57">Accuracy</tspan><tspan font-size="21" x="36.7435" y="-321.615">GCNN</tspan><tspan font-size="21" x="101.509" y="-321.615">(Masci</tspan><tspan font-size="21" x="164.609" y="-321.615">et</tspan><tspan font-size="21" x="185.399" y="-321.615">al.</tspan><tspan font-size="21" x="211.418" y="-321.615">2015)</tspan><tspan font-size="21" x="403.75" y="-321.615">85.4%</tspan><tspan font-size="21" x="39.6086" y="-298.642">PointNet</tspan><tspan font-size="21" x="118.8" y="-298.642">(Qi</tspan><tspan font-size="21" x="152.183" y="-298.642">et</tspan><tspan font-size="21" x="172.905" y="-298.642">al.</tspan><tspan font-size="21" x="198.791" y="-298.642">2017a)</tspan><tspan font-size="21" x="403.75" y="-298.642">74.7%</tspan><tspan font-size="21" x="27.1485" y="-275.67">PointNet++</tspan><tspan font-size="21" x="129.728" y="-275.67">(Qi</tspan><tspan font-size="21" x="163.244" y="-275.67">et</tspan><tspan font-size="21" x="184.099" y="-275.67">al.</tspan><tspan font-size="21" x="210.119" y="-275.67">2017b)</tspan><tspan font-size="21" x="403.75" y="-275.67">82.3%</tspan></text><g clip-path="url(#clip1)"><text font-family="Times New Roman,Times New Roman_MSFontService,sans-serif" font-weight="400" font-size="21" transform="matrix(1 0 0 1.0012 99.5625 133)">MeshCNN</text></g><text font-family="Times New Roman,Times New Roman_MSFontService,sans-serif" font-weight="400" font-size="21" transform="matrix(1 0 0 1.0012 195.412 133)">(Hanocka<tspan font-size="21" x="86.5211" y="0">et</tspan><tspan font-size="21" x="107.643" y="0">al.</tspan><tspan font-size="21" x="133.863" y="0">2019)</tspan><tspan font-size="21" x="298.676" y="0">87.8%</tspan><tspan font-size="21" x="-74.5274" y="22.9725">DGCNN</tspan><tspan font-size="21" x="4.83079" y="22.9725">(Wang</tspan><tspan font-size="21" x="66.5983" y="22.9725">et</tspan><tspan font-size="21" x="87.0542" y="22.9725">al.</tspan><tspan font-size="21" x="112.674" y="22.9725">2019)</tspan><tspan font-size="21" x="298.676" y="22.9725">87.8%</tspan><tspan font-size="21" x="-71.5956" y="46.9438">CGConv</tspan><tspan font-size="21" x="7.26285" y="46.9438">(Yang</tspan><tspan font-size="21" x="64.1995" y="46.9438">et</tspan><tspan font-size="21" x="84.3223" y="46.9438">al.</tspan><tspan font-size="21" x="109.609" y="46.9438">2021)</tspan><tspan font-size="21" x="298.676" y="46.9438">89.9%</tspan></text><g clip-path="url(#clip2)"><text font-family="Times New Roman,Times New Roman_MSFontService,sans-serif" font-weight="400" font-size="21" transform="matrix(1 0 0 1.0012 96.6307 203)">PD</text></g><text font-family="Times New Roman,Times New Roman_MSFontService,sans-serif" font-weight="400" font-size="21" transform="matrix(1 0 0 1.0012 123.117 203)">-<tspan font-size="21" x="6.82973" y="0">MeshNet</tspan><tspan font-size="21" x="88.6866" y="0">(Milano</tspan><tspan font-size="21" x="161.282" y="0">et</tspan><tspan font-size="21" x="182.404" y="0">al.</tspan><tspan font-size="21" x="208.69" y="0">2020)</tspan><tspan font-size="21" x="370.971" y="0">86.9%</tspan></text><g clip-path="url(#clip3)"><text font-family="Times New Roman,Times New Roman_MSFontService,sans-serif" font-weight="400" font-size="21" transform="matrix(1 0 0 1.0012 102.694 226)">DiffusionNet</text></g><text font-family="Times New Roman,Times New Roman_MSFontService,sans-serif" font-weight="400" font-size="21" transform="matrix(1 0 0 1.0012 217.5 226)">(Sharp<tspan font-size="21" x="61.0678" y="0">et</tspan><tspan font-size="21" x="81.9902" y="0">al.</tspan><tspan font-size="21" x="108.076" y="0">2022)</tspan><tspan font-size="21" x="276.554" y="0">91.7%</tspan><tspan font-size="21" x="-92.5513" y="22.9725">SubdivNet</tspan><tspan font-size="21" x="1.56584" y="22.9725">(Hu</tspan><tspan font-size="21" x="39.6125" y="22.9725">et</tspan><tspan font-size="21" x="60.3349" y="22.9725">al.</tspan><tspan font-size="21" x="86.1546" y="22.9725">2022)</tspan><tspan font-size="21" x="276.554" y="22.9725">93.0%</tspan><tspan font-size="21" x="-106.277" y="45.945">MeshMAE</tspan><tspan font-size="21" x="-8.39557" y="45.945">(Liang</tspan><tspan font-size="21" x="52.7389" y="45.945">et</tspan><tspan font-size="21" x="73.6612" y="45.945">al.</tspan><tspan font-size="21" x="99.8141" y="45.945">2022)</tspan><tspan font-size="21" x="276.554" y="45.945">90.0%</tspan><tspan font-size="21" x="-16.5246" y="74.9102">SieveNet</tspan><tspan font-weight="700" font-size="21" x="274.805" y="74.9102">93.2%</tspan></text><g clip-path="url(#clip4)"><text font-family="Times New Roman,Times New Roman_MSFontService,sans-serif" font-weight="400" font-size="21" transform="matrix(1 0 0 1.0012 99.5625 339)">MeshCNN</text></g><text font-family="Times New Roman,Times New Roman_MSFontService,sans-serif" font-weight="400" font-size="21" transform="matrix(1 0 0 1.0012 195.412 339)">(Hanocka<tspan font-size="21" x="86.5211" y="0">et</tspan><tspan font-size="21" x="107.643" y="0">al.</tspan><tspan font-size="21" x="133.863" y="0">2019)</tspan><tspan font-size="21" x="298.676" y="0">85.4%</tspan></text><g clip-path="url(#clip5)"><text font-family="Times New Roman,Times New Roman_MSFontService,sans-serif" font-weight="400" font-size="21" transform="matrix(1 0 0 1.0012 96.6307 361)">PD</text></g><text font-family="Times New Roman,Times New Roman_MSFontService,sans-serif" font-weight="400" font-size="21" transform="matrix(1 0 0 1.0012 123.117 361)">-<tspan font-size="21" x="6.82973" y="0">MeshNet</tspan><tspan font-size="21" x="88.6866" y="0">(Milano</tspan><tspan font-size="21" x="161.282" y="0">et</tspan><tspan font-size="21" x="182.404" y="0">al.</tspan><tspan font-size="21" x="208.69" y="0">2020)</tspan><tspan font-size="21" x="370.971" y="0">85.6%</tspan></text><g clip-path="url(#clip6)"><text font-family="Times New Roman,Times New Roman_MSFontService,sans-serif" font-weight="400" font-size="21" transform="matrix(1 0 0 1.0012 105.493 385)">odgeNet</text></g><text font-family="Times New Roman,Times New Roman_MSFontService,sans-serif" font-weight="400" font-size="21" transform="matrix(1 0 0 1.0012 181.952 385)">(Dmitriy<tspan font-size="21" x="78.5253" y="0">Smirnov</tspan><tspan font-size="21" x="156.051" y="0">2021)</tspan><tspan font-size="21" x="311.203" y="0">85.0%</tspan></text><g clip-path="url(#clip7)"><text font-family="Times New Roman,Times New Roman_MSFontService,sans-serif" font-weight="400" font-size="21" transform="matrix(1 0 0 1.0012 102.694 408)">DiffusionNet</text></g><text font-family="Times New Roman,Times New Roman_MSFontService,sans-serif" font-weight="400" font-size="21" transform="matrix(1 0 0 1.0012 217.5 408)">(Sharp<tspan font-size="21" x="61.0678" y="0">et</tspan><tspan font-size="21" x="81.9902" y="0">al.</tspan><tspan font-size="21" x="108.076" y="0">2022)</tspan><tspan font-size="21" x="276.554" y="0">90.8%</tspan><tspan font-size="21" x="-92.5513" y="22.9725">SubdivNet</tspan><tspan font-size="21" x="1.56584" y="22.9725">(Hu</tspan><tspan font-size="21" x="39.6125" y="22.9725">et</tspan><tspan font-size="21" x="60.3349" y="22.9725">al.</tspan><tspan font-size="21" x="86.1546" y="22.9725">2022)</tspan><tspan font-size="21" x="276.554" y="22.9725">90.8%</tspan><tspan font-size="21" x="-106.277" y="45.945">MeshMAE</tspan><tspan font-size="21" x="-8.39557" y="45.945">(Liang</tspan><tspan font-size="21" x="52.7389" y="45.945">et</tspan><tspan font-size="21" x="73.6612" y="45.945">al.</tspan><tspan font-size="21" x="99.8141" y="45.945">2022)</tspan><tspan font-size="21" x="276.554" y="45.945">90.1%</tspan><tspan font-size="21" x="-16.5215" y="69.9162">SieveNet</tspan><tspan font-weight="700" font-size="21" x="273.948" y="69.9162">91.1%</tspan></text><path d="M67 492.589 628.981 492.589" stroke="#000000" stroke-width="1.68636" stroke-linejoin="round" stroke-miterlimit="10" fill="none" fill-rule="evenodd"/><path d="M16.6885 3.62375 16.6885 4.59786C14.6856 5.06955 13.2295 6.65549 12.3203 9.35568 11.4112 12.0559 10.9566 16.2224 10.9566 21.8552L10.9566 28.0679 10.9566 29.7199 10.9566 46.3869 10.9566 53.7027 10.9566 64.7058 10.9566 72.0217 10.9566 83.0248 10.9566 90.3406 10.9566 107.378 10.9566 108.66 10.9566 119.528C10.9566 123.336 10.4695 126.146 9.49538 127.957 8.52126 129.769 7.54543 130.876 6.56789 131.279L6.56789 131.536C7.53176 131.946 8.47683 133.009 9.4031 134.725 10.3294 136.441 10.8472 139.295 10.9566 143.287L10.9566 153.786 10.9566 155.438 10.9566 172.105 10.9566 179.42 10.9566 190.423 10.9566 197.739 10.9566 208.749 10.9566 216.058 10.9566 232.707 10.9566 234.384 10.9566 240.571C10.9566 246.204 11.4112 250.371 12.3203 253.071 13.2295 255.771 14.6856 257.357 16.6885 257.829L16.6885 258.803C13.8584 258.311 11.8367 256.627 10.6233 253.753 9.40993 250.878 8.80324 246.601 8.80324 240.92L8.80324 234.384 8.80324 232.707 8.80324 216.058 8.80324 208.749 8.80324 197.739 8.80324 190.423 8.80324 179.42 8.80324 172.105 8.80324 155.438 8.80324 153.786 8.80324 141.503C8.80324 138.413 8.42043 136.082 7.65481 134.509 6.88918 132.937 5.81252 132.124 4.42483 132.069L4.42483 130.838C5.78518 130.784 6.855 129.967 7.6343 128.388 8.4136 126.809 8.80324 124.45 8.80324 121.313L8.80324 108.66 8.80324 107.378 8.80324 90.3406 8.80324 83.0248 8.80324 72.0217 8.80324 64.7058 8.80324 53.7027 8.80324 46.3869 8.80324 29.7199 8.80324 28.0679 8.80324 21.5066C8.80324 15.8259 9.40993 11.5483 10.6233 8.6738 11.8367 5.79928 13.8584 4.11593 16.6885 3.62375Z" fill-rule="evenodd" transform="matrix(1 0 0 1.0012 34.6647 43.3292)"/><path d="M17.1083 3.65043 17.1083 4.62455C15.1053 5.09623 13.6493 6.68217 12.7401 9.38236 11.8309 12.0826 11.3763 16.2491 11.3763 21.8819L11.3763 26.9405 11.3763 29.7466 11.3763 34.1387 11.3763 52.5753 11.3763 57.3373 11.3763 59.7734 11.3763 69.4882C11.3763 73.2958 10.8893 76.1054 9.91516 77.9169 8.94104 79.7284 7.96521 80.8358 6.98767 81.2392L6.98767 81.4955C7.95154 81.9057 8.89661 82.9687 9.82288 84.6845 10.7491 86.4003 11.267 89.2543 11.3763 93.2465L11.3763 102.598 11.3763 105.397 11.3763 109.803 11.3763 128.233 11.3763 132.613 11.3763 135.438 11.3763 140.478C11.3763 146.11 11.8309 150.277 12.7401 152.977 13.6493 155.677 15.1053 157.263 17.1083 157.735L17.1083 158.709C14.2782 158.217 12.2565 156.534 11.0431 153.659 9.82971 150.784 9.22302 146.507 9.22302 140.826L9.22302 135.438 9.22302 132.613 9.22302 128.233 9.22302 109.803 9.22302 105.397 9.22302 102.598 9.22302 91.4623C9.22302 88.3725 8.84021 86.0414 8.07459 84.4691 7.30896 82.8969 6.2323 82.0834 4.84461 82.0287L4.84461 80.7982C6.20496 80.7436 7.27478 79.9267 8.05408 78.3476 8.83337 76.7685 9.22302 74.4101 9.22302 71.2724L9.22302 59.7734 9.22302 57.3373 9.22302 52.5753 9.22302 34.1387 9.22302 29.7466 9.22302 26.9405 9.22302 21.5332C9.22302 15.8526 9.82971 11.575 11.0431 8.70048 12.2565 5.82597 14.2782 4.14262 17.1083 3.65043Z" fill-rule="evenodd" transform="matrix(1 0 0 1.0012 33.8236 320.864)"/><text font-family="Georgia,Georgia_MSFontService,sans-serif" font-weight="400" font-size="32" transform="matrix(1 0 0 1.0012 8.57549 185)">†<tspan font-size="32" x="0.222244" y="231.722">‡</tspan></text></g></svg>