<svg width="637" height="217" xmlns="http://www.w3.org/2000/svg" xmlns:xlink="http://www.w3.org/1999/xlink" overflow="hidden"><defs><clipPath id="clip0"><rect x="0" y="0" width="637" height="217"/></clipPath></defs><g clip-path="url(#clip0)"><rect x="0" y="0" width="637" height="216.781" fill="#FFFFFF"/><path d="M2.04943 37.1999 635.718 37.1999" stroke="#000000" stroke-width="1.33264" stroke-linejoin="round" stroke-miterlimit="10" fill="none" fill-rule="evenodd"/><path d="M2.04943 95.71 635.718 95.71" stroke="#000000" stroke-width="1.33264" stroke-linejoin="round" stroke-miterlimit="10" fill="none" fill-rule="evenodd"/><path d="M2.04943 178.05 635.718 178.05" stroke="#000000" stroke-width="1.33264" stroke-linejoin="round" stroke-miterlimit="10" fill="none" fill-rule="evenodd"/><path d="M2.04943 2.18698 635.718 2.18698" stroke="#000000" stroke-width="1.99895" stroke-linejoin="round" stroke-miterlimit="10" fill="none" fill-rule="evenodd"/><path d="M2.04943 213.063 635.718 213.063" stroke="#000000" stroke-width="1.99895" stroke-linejoin="round" stroke-miterlimit="10" fill="none" fill-rule="evenodd"/><text font-family="Times New Roman,Times New Roman_MSFontService,sans-serif" font-weight="400" font-size="21" transform="matrix(1 0 0 0.998989 174.443 25)">Method<tspan font-size="21" x="309.305" y="0">Accuracy</tspan><tspan font-size="21" x="-90.969" y="34.0344">PointNet++</tspan><tspan font-size="21" x="14.7756" y="34.0344">(Qi</tspan><tspan font-size="21" x="49.0577" y="34.0344">et</tspan><tspan font-size="21" x="70.3466" y="34.0344">al.</tspan><tspan font-size="21" x="96.966" y="34.0344">2017b)</tspan><tspan font-size="21" x="322.431" y="34.0344">87.9%</tspan><tspan font-size="21" x="-101.114" y="58.0587">PointNeXt</tspan><tspan font-size="21" x="-9.82819" y="58.0587">-</tspan>S<tspan font-size="21" x="15.0255" y="58.0587">(Qian</tspan><tspan font-size="21" x="69.5303" y="58.0587">et</tspan><tspan font-size="21" x="90.8858" y="58.0587">al.</tspan><tspan font-size="21" x="117.638" y="58.0587">2022)</tspan><tspan font-size="21" x="322.431" y="58.0587">92.3%</tspan><tspan font-size="21" x="-85.5386" y="93.0941">MeshNet</tspan><tspan font-size="21" x="-1.44926" y="93.0941">(Feng</tspan><tspan font-size="21" x="54.155" y="93.0941">et</tspan><tspan font-size="21" x="75.4438" y="93.0941">al.</tspan><tspan font-size="21" x="102.063" y="93.0941">2019)</tspan><tspan font-size="21" x="322.431" y="93.0941">88.4%</tspan><tspan font-size="21" x="-83.4064" y="117.118">SubdivNet</tspan><tspan font-size="21" x="13.4763" y="117.118">(Hu</tspan><tspan font-size="21" x="52.2893" y="117.118">et</tspan><tspan font-size="21" x="73.4449" y="117.118">al.</tspan><tspan font-size="21" x="99.931" y="117.118">2022)</tspan><tspan font-size="21" x="322.431" y="117.118">91.2%</tspan><tspan font-size="21" x="-97.4989" y="141.143">MeshMAE</tspan><tspan font-size="21" x="3.14838" y="141.143">(Liang</tspan><tspan font-size="21" x="65.9822" y="141.143">et</tspan><tspan font-size="21" x="87.3377" y="141.143">al.</tspan><tspan font-size="21" x="114.024" y="141.143">2022)</tspan><tspan font-size="21" x="322.431" y="141.143">91.7%</tspan><tspan font-size="21" x="-5.78033" y="176.178">SieveNet</tspan><tspan font-weight="700" font-size="21" x="320.682" y="176.178">92.5%</tspan></text></g></svg>